HIERARCHY
ROOT root
{
	OFFSET	0	13.1	24.9
	CHANNELS 6  Xposition Yposition Zposition Xrotation Yrotation Zrotation
	JOINT spine_1
	{
		OFFSET	0	9.99999	0
		CHANNELS 3  Xrotation Yrotation Zrotation
		JOINT spine_2
		{
			OFFSET	0	112	-10
			CHANNELS 3  Xrotation Yrotation Zrotation
			JOINT spine_3
			{
				OFFSET	0	206.5	19.3
				CHANNELS 3  Xrotation Yrotation Zrotation
				JOINT spine_4
				{
					OFFSET	0	110.4	14.6
					CHANNELS 3  Xrotation Yrotation Zrotation
					JOINT neck_1
					{
						OFFSET	0	71.8	-50.3
						CHANNELS 3  Xrotation Yrotation Zrotation
						JOINT neck_2
						{
							OFFSET	0	86.2	-25.8
							CHANNELS 3  Xrotation Yrotation Zrotation
							JOINT head_ee
							{
								OFFSET	0	179.8	-8.7
								CHANNELS 3  Xrotation Yrotation Zrotation
								End Site
								{
									OFFSET	1	0	0
								}
							}
						}
					}
					JOINT left_clavicle
					{
						OFFSET	-43.2	22.4	-70.8
						CHANNELS 3  Xrotation Yrotation Zrotation
						JOINT left_shoulder
						{
							OFFSET	-93.9	-5.79999	48.7
							CHANNELS 3  Xrotation Yrotation Zrotation
							JOINT left_elbow
							{
								OFFSET	-291.4	-30.8	15.2
								CHANNELS 3  Xrotation Yrotation Zrotation
								JOINT left_lowarm_twist
								{
									OFFSET	-110.7	-3.89999	13.6
									CHANNELS 3  Xrotation Yrotation Zrotation
									JOINT left_hand
									{
										OFFSET	-110.7	-3.89999	13.6
										CHANNELS 3  Xrotation Yrotation Zrotation
										JOINT left_ee
										{
											OFFSET	-80.8	-5.10001	12.1
											CHANNELS 3  Xrotation Yrotation Zrotation
											End Site
											{
												OFFSET	1	0	0
											}
										}
									}
								}
							}
						}
					}
					JOINT right_clavicle
					{
						OFFSET	43.2	22.4	-70.8
						CHANNELS 3  Xrotation Yrotation Zrotation
						JOINT right_shoulder
						{
							OFFSET	93.9	-5.79999	48.7
							CHANNELS 3  Xrotation Yrotation Zrotation
							JOINT right_elbow
							{
								OFFSET	291.4	-30.8	15.2
								CHANNELS 3  Xrotation Yrotation Zrotation
								JOINT right_lowarm_twist
								{
									OFFSET	110.7	-3.89999	13.6
									CHANNELS 3  Xrotation Yrotation Zrotation
									JOINT right_hand
									{
										OFFSET	110.7	-3.89999	13.6
										CHANNELS 3  Xrotation Yrotation Zrotation
										JOINT right_ee
										{
											OFFSET	80.8	-5.10001	12.1
											CHANNELS 3  Xrotation Yrotation Zrotation
											End Site
											{
												OFFSET	1	0	0
											}
										}
									}
								}
							}
						}
					}
				}
			}
		}
	}
	JOINT left_hip
	{
		OFFSET	-82.8	-127.5	0.300001
		CHANNELS 3  Xrotation Yrotation Zrotation
		JOINT left_knee
		{
			OFFSET	-28.2	-396.7	2.2
			CHANNELS 3  Xrotation Yrotation Zrotation
			JOINT left_ankle
			{
				OFFSET	-11.7	-411.3	35.4
				CHANNELS 3  Xrotation Yrotation Zrotation
				JOINT left_toes
				{
					OFFSET	0	-60	-88.6
					CHANNELS 3  Xrotation Yrotation Zrotation
					JOINT left_foot_ee
					{
						OFFSET	-22.5	-16.5	-42.2
						CHANNELS 3  Xrotation Yrotation Zrotation
						End Site
						{
							OFFSET	1	0	0
						}
					}
				}
			}
		}
	}
	JOINT right_hip
	{
		OFFSET	82.8	-127.5	0.300001
		CHANNELS 3  Xrotation Yrotation Zrotation
		JOINT right_knee
		{
			OFFSET	28.2	-396.7	2.2
			CHANNELS 3  Xrotation Yrotation Zrotation
			JOINT right_ankle
			{
				OFFSET	11.7	-411.3	35.4
				CHANNELS 3  Xrotation Yrotation Zrotation
				JOINT right_toes
				{
					OFFSET	0	-60	-88.6
					CHANNELS 3  Xrotation Yrotation Zrotation
					JOINT right_foot_ee
					{
						OFFSET	22.5	-16.5	-42.2
						CHANNELS 3  Xrotation Yrotation Zrotation
						End Site
						{
							OFFSET	1	0	0
						}
					}
				}
			}
		}
	}
}
MOTION
Frames: 16
Frame Time: 0.02
2827.7373536 675.9 -1689.49448285 13.0060288397 52.2296029677 -13.2778194305 -0.538673 0.343524 2.884 -0.53406 0.159391 2.9 -0.523045 -0.480182 2.86444 -0.534493 -0.0219698 2.90429 -28.7727 19.1938 -0.518681 -32.8511 36.7557 12.1909 -0.0 0.0 -0.0 -2.68671 13.0634 -2.90492 1.05802 -20.7165 58.0334 2.12457 -46.458 0.911949 6.33725 0.179787 -0.789123 0.509712 10.8712 7.76354 -0.0 0.0 -0.0 12.7765 24.6758 -25.3094 -19.2937 26.4626 -64.2738 0.956277 25.347 -0.215046 37.1102 0.207552 4.65421 2.26085 -28.9124 -24.2649 0.0 0.0 0.0 -7.55657 0.199462 7.14404 -7.14311 0.227519 1.07194 28.5666 13.5881 -3.76321 -29.1296 0.0 0.0 -0.0 0.0 -0.0 4.77121 33.9693 -7.80784 -49.625 1.18967 -7.28876 38.5467 -26.6373 5.0801 4.13582 -0.0 -0.0 0.0 0.0 0.0 
2827.28478914 675.9 -1678.87490906 13.5378809717 53.9238913865 -13.9430241147 -0.538673 0.343524 2.884 -0.53406 0.159391 2.9 -0.523045 -0.480182 2.86444 -0.534493 -0.0219698 2.90429 -28.7727 19.1938 -0.518681 -32.8511 36.7557 12.1909 -0.0 0.0 -0.0 -2.68671 13.0634 -2.90492 1.05802 -20.7165 58.0334 2.12457 -46.458 0.911949 6.33725 0.179787 -0.789123 0.509712 10.8712 7.76354 -0.0 0.0 -0.0 12.7765 24.6758 -25.3094 -19.2937 26.4626 -64.2738 0.956277 25.347 -0.215046 37.1102 0.207552 4.65421 2.26085 -28.9124 -24.2649 0.0 0.0 0.0 -7.55657 0.199462 7.14404 -7.14311 0.227519 1.07194 28.5666 13.5881 -3.76321 -29.1296 0.0 0.0 -0.0 0.0 -0.0 4.77121 33.9693 -7.80784 -49.625 1.18967 -7.28876 38.5467 -26.6373 5.0801 4.13582 -0.0 -0.0 0.0 0.0 0.0 
2823.00489173 677.467 -1647.9258216 14.231959037 57.4964165591 -15.3964850382 -0.600314 0.436727 3.12016 -0.59493 0.237398 3.1416 -0.578261 -0.460007 3.11682 -0.591815 0.037755 3.15032 -28.0984 19.3661 -1.22072 -32.2065 37.3955 11.4557 -0.0 0.0 -0.0 -2.69995 11.4668 -3.21892 3.2232 -20.6423 56.7702 2.18492 -47.2584 0.95599 6.13153 0.175328 -0.763223 0.426553 11.1729 7.34579 -0.0 0.0 -0.0 12.7267 24.2743 -25.2366 -18.0207 26.9127 -64.3948 0.886359 23.7049 -0.18602 35.6802 0.143849 4.48285 2.03123 -29.3146 -22.9735 0.0 0.0 0.0 -10.2976 -1.41274 8.31505 -2.61481 0.0987958 0.389092 31.0849 15.8827 -4.06263 -28.5928 0.0 0.0 -0.0 0.0 -0.0 7.74523 31.3535 -8.28782 -45.9059 0.884583 -6.80443 38.4786 -26.8096 5.07924 4.38515 -0.0 -0.0 0.0 0.0 0.0 
2803.74657036 681.419 -1607.87906591 19.5394755693 62.5269517752 -21.0403854306 -0.727074 0.520846 3.11333 -0.72174 0.321781 3.14012 -0.700135 -0.383918 3.13314 -0.713814 0.115467 3.15444 -28.1957 19.2581 -0.697691 -32.2192 36.9968 11.8618 -0.0 0.0 -0.0 -2.7935 9.96776 -3.65375 6.34216 -20.7248 55.4155 2.15223 -46.8278 0.932063 4.73399 0.142575 -0.587707 0.31147 11.1686 6.60615 -0.0 0.0 -0.0 13.176 25.2469 -26.1713 -18.8801 26.4563 -63.5814 0.65666 18.0193 -0.104119 38.0193 0.250272 4.76232 2.26164 -30.0102 -24.4895 0.0 0.0 0.0 -12.8921 -2.08748 9.89985 -4.5372 0.160039 0.677752 30.6796 14.0062 -3.99841 -29.3621 0.0 0.0 -0.0 0.0 -0.0 14.9215 24.5885 -9.97685 -42.2696 0.617438 -6.31305 37.6224 -22.6103 4.86565 1.50667 -0.0 -0.0 0.0 0.0 0.0 
2766.64654286 673.926 -1571.13849022 22.8329995876 66.9904197687 -25.1502657803 -1.02491 0.541314 3.31076 -1.01887 0.329666 3.33845 -0.994706 -0.437469 3.32605 -1.01013 0.0930035 3.35338 -27.5488 19.0455 -2.14701 -31.4785 37.1886 10.147 -0.0 0.0 -0.0 -2.14007 9.19666 -2.64686 11.1636 -20.7373 53.9378 2.81828 -54.3764 1.44788 3.29093 0.104271 -0.407354 0.0250118 10.2645 4.41009 -0.0 0.0 -0.0 12.6684 24.511 -25.0772 -19.8913 25.6045 -63.1089 0.52839 14.6682 -0.0680084 38.4235 0.269815 4.81017 2.17518 -29.5743 -23.8856 0.0 0.0 0.0 -16.3801 -0.439483 12.1659 -1.9326 0.0747356 0.287158 30.9919 16.6335 -4.06213 -29.9772 0.0 0.0 -0.0 0.0 -0.0 18.4185 18.6997 -8.13798 -33.9017 0.125043 -5.12615 35.147 -21.0771 4.57846 -0.827896 0.0 0.0 0.0 0.0 0.0 
2767.26089917 673.926 -1568.60448722 23.1613158747 67.3163401639 -25.5065304189 -1.02491 0.541314 3.31076 -1.01887 0.329666 3.33845 -0.994706 -0.437469 3.32605 -1.01013 0.0930035 3.35338 -27.5488 19.0455 -2.14701 -31.4785 37.1886 10.147 -0.0 0.0 -0.0 -2.14007 9.19666 -2.64686 11.1636 -20.7373 53.9378 2.81828 -54.3764 1.44788 3.29093 0.104271 -0.407354 0.0250118 10.2645 4.41009 -0.0 0.0 -0.0 12.6684 24.511 -25.0772 -19.8913 25.6045 -63.1089 0.52839 14.6682 -0.0680084 38.4235 0.269815 4.81017 2.17518 -29.5743 -23.8856 0.0 0.0 0.0 -16.3801 -0.439483 12.1659 -1.9326 0.0747356 0.287158 30.9919 16.6335 -4.06213 -29.9772 0.0 0.0 -0.0 0.0 -0.0 18.4185 18.6997 -8.13798 -33.9017 0.125043 -5.12615 35.147 -21.0771 4.57846 -0.827896 0.0 0.0 0.0 0.0 0.0 
2754.65073786 671.072 -1558.1594511 22.8777325287 68.0956170037 -25.9152086119 -1.04625 0.565079 3.3229 -1.04018 0.352611 3.35208 -1.01448 -0.419342 3.34439 -1.03007 0.113795 3.36863 -27.0674 19.0335 -2.22715 -30.9115 37.2493 9.87885 -0.0 0.0 -0.0 -1.77773 8.87253 -2.06347 12.3672 -20.8254 53.8546 3.22123 -57.9124 1.78266 3.1997 0.101696 -0.395986 0.020342 9.97922 4.26479 -0.0 0.0 -0.0 12.9035 24.2711 -25.6457 -21.1511 25.1273 -62.5763 0.484934 13.508 -0.0574302 38.5469 0.27585 4.82475 2.15678 -29.2943 -23.7177 0.0 0.0 0.0 -16.826 -0.243545 13.4945 -1.86248 0.0721939 0.276696 31.6674 17.5414 -4.14768 -30.2 0.0 0.0 -0.0 0.0 -0.0 18.9014 17.8861 -7.71224 -25.6779 -0.185202 -3.9033 30.9974 -21.8875 4.15077 -2.02795 0.0 0.0 0.0 0.0 0.0 
2748.90997396 677.73 -1555.00258859 20.2061854377 68.2165616939 -23.7935431302 -1.07254 0.588861 3.36448 -1.06632 0.373704 3.39508 -1.0389 -0.410013 3.3909 -1.05492 0.130338 3.41308 -26.6534 19.1232 -1.3287 -30.387 37.1205 10.5817 -0.0 0.0 -0.0 -0.944078 8.56498 -0.643281 12.8797 -18.7184 54.043 3.69579 -61.34 2.19227 2.46966 0.0804449 -0.305155 -0.253328 7.41184 1.44027 -0.0 0.0 -0.0 13.0462 24.3561 -25.9675 -22.0916 23.5557 -61.472 0.558373 15.4617 -0.0758018 38.473 0.272233 4.81602 2.18382 -27.7152 -23.543 0.0 0.0 0.0 -16.2202 0.454989 14.3621 -0.525027 0.0212624 0.0777654 27.6262 17.172 -3.69393 -31.7447 0.0 0.0 -0.0 0.0 -0.0 17.3714 19.4645 -7.01152 -14.2613 -0.319849 -2.15956 22.4491 -23.1211 3.15472 -4.88476 0.0 0.0 0.0 0.0 0.0 
2732.16055206 672.185 -1551.24112164 19.6697510643 68.7073845189 -23.5126813243 -1.14785 0.571866 3.34404 -1.1417 0.358041 3.37361 -1.1153 -0.424882 3.36585 -1.13109 0.111708 3.3907 -28.1008 19.0604 -2.85902 -32.1939 37.4068 9.7411 -0.0 0.0 -0.0 -0.928991 8.3153 -0.651344 13.0822 -19.2703 54.015 4.09514 -63.7403 2.54671 1.29909 0.0439574 -0.160092 -0.0666211 7.3937 2.64598 -0.0 0.0 -0.0 13.1791 24.6862 -26.2406 -22.9259 24.3744 -60.7039 0.490347 13.6531 -0.0587012 38.8686 0.291729 4.8627 2.07331 -27.9826 -22.9322 0.0 0.0 0.0 -15.6766 1.33879 15.2661 -1.08398 0.0431135 0.160762 29.0464 20.5898 -3.90645 -31.9219 0.0 0.0 -0.0 0.0 -0.0 19.615 16.9029 -7.22364 -14.3754 -0.320227 -2.17706 25.2725 -23.7554 3.51748 -4.46366 0.0 0.0 0.0 0.0 0.0 
2707.69832835 663.645 -1553.42817446 17.2708000284 67.7873933955 -21.6956941038 -1.40441 0.641248 3.29122 -1.39849 0.430638 3.3253 -1.36776 -0.357717 3.33392 -1.38323 0.172999 3.34858 -24.0139 18.9569 -3.48064 -27.356 37.9179 7.50352 -0.0 0.0 -0.0 -0.718993 9.17559 -0.165654 13.5981 -19.1077 54.4091 5.55243 -69.992 3.88882 2.83475 0.0912175 -0.350546 -0.176718 8.27205 2.29502 -0.0 0.0 -0.0 13.2845 24.7953 -26.4736 -22.8511 24.2503 -59.6873 0.392548 11.0044 -0.0378136 38.8011 0.288376 4.85474 1.81285 -29.4913 -21.7247 0.0 0.0 0.0 -14.7635 1.53124 16.2038 -7.25517 0.230018 1.08895 33.1201 19.5016 -4.33503 -29.5503 0.0 0.0 -0.0 0.0 -0.0 21.0273 16.432 -6.5444 -6.4023 -0.210161 -0.95958 20.2672 -21.1242 2.8484 -5.68724 0.0 0.0 0.0 0.0 0.0 
2706.79199369 663.645 -1557.1632138 16.9461494821 67.3520100645 -21.3444743014 -1.40441 0.641248 3.29122 -1.39849 0.430638 3.3253 -1.36776 -0.357717 3.33392 -1.38323 0.172999 3.34858 -24.0139 18.9569 -3.48064 -27.356 37.9179 7.50352 -0.0 0.0 -0.0 -0.718993 9.17559 -0.165654 13.5981 -19.1077 54.4091 5.55243 -69.992 3.88882 2.83475 0.0912175 -0.350546 -0.176718 8.27205 2.29502 -0.0 0.0 -0.0 13.2845 24.7953 -26.4736 -22.8511 24.2503 -59.6873 0.392548 11.0044 -0.0378136 38.8011 0.288376 4.85474 1.81285 -29.4913 -21.7247 0.0 0.0 0.0 -14.7635 1.53124 16.2038 -7.25517 0.230018 1.08895 33.1201 19.5016 -4.33503 -29.5503 0.0 0.0 -0.0 0.0 -0.0 21.0273 16.432 -6.5444 -6.4023 -0.210161 -0.95958 20.2672 -21.1242 2.8484 -5.68724 0.0 0.0 0.0 0.0 0.0 
2697.93322961 656.472 -1561.96440828 15.6257939495 66.9471473856 -20.2482381454 -1.55598 0.623252 3.3307 -1.5499 0.410171 3.36355 -1.51975 -0.395535 3.3653 -1.53552 0.140601 3.38553 -22.6064 18.8679 -4.86649 -25.7355 38.4944 5.64289 -0.0 0.0 -0.0 -0.751166 8.83348 -0.267833 14.2214 -18.8463 54.2247 5.60198 -70.1546 3.93541 2.97191 0.0951897 -0.367616 -0.267554 8.79211 1.92423 -0.0 0.0 -0.0 13.4446 25.2738 -26.7925 -22.1571 24.6411 -59.4805 0.366754 10.2973 -0.0330462 38.8478 0.290693 4.86025 1.61408 -29.5401 -20.5783 0.0 0.0 0.0 -13.919 1.63738 16.1854 -10.556 0.288657 1.592 35.2016 19.4477 -4.55023 -28.379 0.0 0.0 -0.0 0.0 -0.0 21.8319 16.006 -6.51223 -1.24239 -0.0491582 -0.184321 14.5702 -20.3041 2.08743 -7.61185 0.0 0.0 0.0 0.0 0.0 
2687.15296113 653.972 -1564.50512502 15.6059633543 66.1841305125 -20.2786333156 -1.78549 0.557926 3.41298 -1.77907 0.339751 3.44152 -1.75206 -0.496419 3.42246 -1.7684 0.0499885 3.45787 -23.368 18.7313 -4.35822 -26.5569 37.9318 6.30217 -0.0 0.0 -0.0 -0.756909 8.2628 -0.354776 14.3711 -19.1927 54.5998 6.00734 -71.3945 4.31819 3.3945 0.107171 -0.420266 -0.240679 8.67371 2.04838 -0.0 0.0 -0.0 13.6782 25.304 -27.3336 -21.7213 24.5874 -59.2178 0.359199 10.0896 -0.0317091 39.2678 0.311726 4.90967 1.60353 -29.2306 -20.442 0.0 0.0 0.0 -13.2266 1.50674 16.3186 -13.1796 0.314538 1.99369 36.3698 18.9008 -4.65705 -27.6465 0.0 0.0 -0.0 0.0 -0.0 22.5073 15.9747 -6.39478 0.937443 0.0397362 0.138365 9.33555 -16.9349 1.34656 -9.51125 0.0 0.0 0.0 0.0 0.0 
2638.05505741 641.032 -1571.02993149 16.4349896485 68.6511713755 -21.7112227682 -2.61924 0.523474 3.61336 -2.61202 0.292642 3.6393 -2.58462 -0.642167 3.59418 -2.60264 -0.0668678 3.65041 -19.4337 18.6659 -5.261 -21.8802 38.5668 3.85013 -0.0 0.0 -0.0 -0.711602 8.70448 -0.215755 14.9635 -19.4241 55.7511 7.7498 -75.3576 5.98883 3.20547 0.101859 -0.396704 -0.345704 7.7739 0.9927 -0.0 0.0 -0.0 14.1467 26.0831 -28.3366 -20.0699 25.3078 -58.8419 0.320301 9.01603 -0.0252534 39.4511 0.32102 4.93119 1.42833 -29.7431 -19.558 0.0 0.0 0.0 -14.1011 1.72213 16.435 -18.4429 0.310919 2.80095 38.3659 19.3519 -4.86052 -26.505 0.0 0.0 -0.0 0.0 -0.0 23.5929 16.1146 -6.30559 4.6116 0.217187 0.674019 8.67187 -17.5431 1.25564 -9.76616 0.0 0.0 0.0 0.0 0.0 
2595.95895981 636.475 -1565.18260656 21.9528595715 70.8445804588 -27.2828168588 -3.1981 0.59174 3.95257 -3.18948 0.339233 3.98215 -3.15397 -0.723516 3.93062 -3.17551 -0.0941859 3.99544 -17.421 18.4623 -5.20402 -19.4001 38.2609 2.94704 -0.0 0.0 -0.0 -1.10155 8.94174 -0.866686 13.3381 -20.5633 57.0483 7.19224 -74.283 5.4507 3.16019 0.100576 -0.391063 -0.168296 7.35553 1.96926 -0.0 0.0 -0.0 13.9536 26.265 -27.8616 -17.4219 26.5772 -60.1209 0.327847 9.22482 -0.0264494 39.0614 0.301345 4.8854 1.41838 -29.4196 -19.4191 0.0 0.0 0.0 -17.2089 0.850424 16.4186 -18.3575 0.31157 2.78786 38.0363 19.5478 -4.8331 -25.8506 0.0 0.0 -0.0 0.0 -0.0 24.7907 15.8173 -6.44877 -3.78748 -0.137308 -0.564939 2.37242 -18.0239 0.350145 -10.3507 0.0 0.0 0.0 0.0 0.0 
2595.37739936 636.475 -1568.48242627 21.60839427 70.5425792029 -26.9178272952 -3.1981 0.59174 3.95257 -3.18948 0.339233 3.98215 -3.15397 -0.723516 3.93062 -3.17551 -0.0941859 3.99544 -17.421 18.4623 -5.20402 -19.4001 38.2609 2.94704 -0.0 0.0 -0.0 -1.10155 8.94174 -0.866686 13.3381 -20.5633 57.0483 7.19224 -74.283 5.4507 3.16019 0.100576 -0.391063 -0.168296 7.35553 1.96926 -0.0 0.0 -0.0 13.9536 26.265 -27.8616 -17.4219 26.5772 -60.1209 0.327847 9.22482 -0.0264494 39.0614 0.301345 4.8854 1.41838 -29.4196 -19.4191 0.0 0.0 0.0 -17.2089 0.850424 16.4186 -18.3575 0.31157 2.78786 38.0363 19.5478 -4.8331 -25.8506 0.0 0.0 -0.0 0.0 -0.0 24.7907 15.8173 -6.44877 -3.78748 -0.137308 -0.564939 2.37242 -18.0239 0.350145 -10.3507 0.0 0.0 0.0 0.0 0.0 
